<?xml version="1.0" standalone="no"?>
<!DOCTYPE svg PUBLIC "-//W3C//DTD SVG 1.1//EN" "http://www.w3.org/Graphics/SVG/1.1/DTD/svg11.dtd" >
<svg xmlns="http://www.w3.org/2000/svg">
<metadata></metadata>
<defs>
<font id="mm_text_probold" horiz-adv-x="1079" >
<font-face units-per-em="2048" ascent="1638" descent="-410" />
<missing-glyph horiz-adv-x="331" />
<glyph horiz-adv-x="0" />
<glyph horiz-adv-x="0" />
<glyph horiz-adv-x="682" />
<glyph unicode="&#xd;" horiz-adv-x="0" />
<glyph unicode=" "  horiz-adv-x="331" />
<glyph unicode="&#x09;" horiz-adv-x="331" />
<glyph unicode="&#xa0;" horiz-adv-x="331" />
<glyph unicode="!" horiz-adv-x="577" d="M106 1352l377 39l-53 -959h-291zM117 0v311h334v-311h-334z" />
<glyph unicode="&#x22;" horiz-adv-x="796" d="M84 791v561h285l-72 -561h-213zM461 791v561h284l-71 -561h-213z" />
<glyph unicode="#" horiz-adv-x="1329" d="M35 303l43 236h172l55 292h-182l43 238h182l53 283h269l-54 -283h224l53 283h268l-53 -283h186l-45 -238h-184l-53 -292h190l-43 -236h-190l-56 -303h-270l55 303h-221l-55 -303h-270l55 303h-172zM520 539h221l56 292h-224z" />
<glyph unicode="$" horiz-adv-x="821" d="M59 18l2 336q173 -55 330 -55h15q4 28 4 39q0 60 -78 158l-160 206q-106 138 -106 295q0 134 63 230t190 131v237h187v-219q70 -2 132.5 -10.5t90 -15.5t29.5 -9l-19 -311q-102 29 -213 29q-88 0 -88 -68q0 -24 13 -48.5t41 -63.5l180 -252q96 -134 96 -273 q0 -144 -69 -239t-210 -125v-236h-190v223q-142 8 -240 41z" />
<glyph unicode="%" horiz-adv-x="1419" d="M37 1026q0 186 72 268t229 82q82 0 133.5 -19t80.5 -64.5t39.5 -107.5t10.5 -161q0 -189 -70.5 -269.5t-228.5 -80.5q-82 0 -134 19t-81 64t-40 107.5t-11 161.5zM258 0l670 1352h231l-670 -1352h-231zM260 1024q0 -128 16 -188q12 -5 31 -5q27 0 42 11t25.5 55t10.5 127 q0 120 -18 188q-18 7 -33 7q-27 0 -41.5 -12t-23.5 -55.5t-9 -127.5zM821 328q0 186 71 268t228 82q82 0 133.5 -19t80.5 -64.5t39.5 -107.5t10.5 -161q0 -190 -71 -270.5t-228 -80.5q-82 0 -133.5 19t-80.5 64.5t-39.5 108t-10.5 161.5zM1042 326q0 -122 17 -189 q10 -4 31 -4q27 0 41.5 11t25 55t10.5 127q0 118 -18 186q-15 6 -33 6q-27 0 -41 -11t-23.5 -54t-9.5 -127z" />
<glyph unicode="&#x26;" horiz-adv-x="1069" d="M66 414q0 111 37.5 205t121.5 129v4q-75 64 -99 137t-24 168q0 147 97.5 233t281.5 86q196 0 332 -41l-27 -284q-120 26 -227 26q-64 0 -97.5 -20.5t-33.5 -73.5q0 -42 12 -74.5t43 -77.5h553l-28 -274h-150v-496q-59 -37 -179.5 -62.5t-227.5 -25.5q-73 0 -129 11 t-106 40.5t-81.5 78.5t-50 127t-18.5 184zM393 430q0 -112 17.5 -145t70.5 -33q38 0 84 8v297h-10q-89 0 -147 -12q-15 -77 -15 -115z" />
<glyph unicode="'" horiz-adv-x="419" d="M84 791v561h285l-72 -561h-213z" />
<glyph unicode="(" horiz-adv-x="499" d="M61 598q0 464 185 897l217 -59q-139 -373 -139 -832q0 -239 29.5 -426t101.5 -381l-232 -59q-162 382 -162 860z" />
<glyph unicode=")" horiz-adv-x="499" d="M37 -205q139 373 139 832q0 239 -29.5 426t-101.5 381l231 59q162 -382 162 -860q0 -466 -184 -897z" />
<glyph unicode="*" horiz-adv-x="946" d="M37 954l67 207l119 -39q24 -8 168 -84q-26 137 -26 191v125h215v-125q0 -27 -27 -189q144 76 172 84l119 39l65 -205l-116 -40q-56 -17 -189 -31q94 -87 135 -133l74 -103l-176 -127l-74 101q-29 36 -88 166q-76 -148 -90 -168l-70 -101l-178 129l74 101q24 30 131 133 q-134 15 -188 33z" />
<glyph unicode="+" horiz-adv-x="901" d="M45 506v272h262v279h281v-279h268v-272h-268v-287h-281v287h-262z" />
<glyph unicode="," horiz-adv-x="462" d="M82 -205v543h301v-272l-88 -271h-213z" />
<glyph unicode="-" horiz-adv-x="757" d="M88 473v287h582v-287h-582z" />
<glyph unicode="." horiz-adv-x="464" d="M82 0v338h301v-338h-301z" />
<glyph unicode="/" horiz-adv-x="800" d="M27 -246l495 1721h250l-493 -1721h-252z" />
<glyph unicode="0" horiz-adv-x="1077" d="M70 676q0 197 23 325.5t80.5 215t151.5 123t240 36.5q60 0 109 -5t90 -18t72.5 -29.5t56.5 -44.5t43 -58t31 -74.5t21 -89.5t12.5 -108.5t6 -126t1.5 -146.5q0 -199 -24.5 -329t-83.5 -215t-153 -121t-237 -36q-75 0 -133 8t-103.5 29t-77.5 47.5t-55 72t-36.5 94 t-21.5 122.5t-10.5 148t-2.5 180zM428 676q0 -254 23 -383q33 -10 61 -10q39 0 61.5 12t41.5 52t26.5 119.5t7.5 209.5q0 252 -26 385q-30 10 -58 10q-53 0 -79.5 -24.5t-42 -111t-15.5 -259.5z" />
<glyph unicode="1" horiz-adv-x="741" d="M37 1255l465 97h121v-1352h-355v977l-211 -41z" />
<glyph unicode="2" horiz-adv-x="921" d="M49 172q0 156 33 252.5t119 181.5l256 248q26 29 36.5 53.5t10.5 59.5q0 31 -12 71q-9 0 -29 1t-29 1q-150 0 -319 -47l-21 330q179 53 369 53q401 0 401 -366q0 -125 -36.5 -212.5t-116.5 -160.5l-236 -217q-35 -33 -35 -74q0 -5 1 -17l1 -12h389v-317h-774l-1 9 q-1 9 -2 25t-2 36t-2 47.5t-1 54.5z" />
<glyph unicode="3" horiz-adv-x="905" d="M51 10l21 322q104 -23 188 -23q130 0 172.5 28t42.5 107q0 31 -10 86q-16 2 -45 2q-106 0 -254 -14v301l194 10q71 4 98 34t27 85q0 30 -16 92q-6 0 -19.5 1t-19.5 1q-150 0 -330 -36l-18 319q162 51 371 51q197 0 287.5 -86t90.5 -260q0 -102 -32 -182.5t-92 -124.5v-4 q127 -66 127 -309q0 -215 -117.5 -321.5t-374.5 -106.5q-188 0 -291 28z" />
<glyph unicode="4" horiz-adv-x="1050" d="M35 543l319 809h533v-809h106l-2 -310h-104v-233h-342v233h-484zM375 522h176l22 557h-22z" />
<glyph unicode="5" horiz-adv-x="911" d="M57 10l21 320q103 -23 198 -23q127 0 170 33.5t43 120.5q0 22 -8 96q-129 -5 -305 -31l-84 125v701h737v-316h-405v-190q70 14 139 14q146 0 215.5 -98.5t69.5 -274.5q0 -254 -114.5 -379.5t-375.5 -125.5q-154 0 -301 28z" />
<glyph unicode="6" horiz-adv-x="983" d="M70 543q0 122 5.5 216t20 183t39 153t63 118.5t91.5 87.5t125 51t164 18q180 0 303 -29l-19 -313q-29 8 -95.5 16.5t-131.5 8.5q-132 0 -172 -42t-43 -169q45 22 114.5 37.5t127.5 15.5q65 0 112 -19t76 -51t45.5 -84t22.5 -109t6 -134q0 -145 -28 -246.5t-86 -162 t-139.5 -87.5t-195.5 -27q-111 0 -183.5 24.5t-124.5 88t-74.5 174t-22.5 281.5zM414 604q0 -256 16 -338q27 -6 57 -6q65 0 91 46t26 177q0 41 -10 138q-27 8 -59 8q-63 0 -121 -25z" />
<glyph unicode="7" horiz-adv-x="876" d="M47 1036v316h793v-316q-84 -122 -183.5 -306.5t-113.5 -242.5q-10 -72 -16 -147.5t-7.5 -119.5t-3 -120t-2.5 -100h-371q0 336 37 504q41 190 291 532h-424z" />
<glyph unicode="8" horiz-adv-x="1028" d="M66 381q0 127 41 208t141 122v4q-89 33 -126.5 108t-37.5 187q0 179 104.5 272.5t331.5 93.5q125 0 210 -23.5t132 -72.5t66.5 -113.5t19.5 -156.5q0 -230 -172 -293v-4q100 -36 142.5 -120t42.5 -212q0 -201 -112.5 -303.5t-350.5 -102.5q-233 0 -332.5 98.5 t-99.5 307.5zM414 406q0 -96 12 -148q32 -4 70 -4q68 0 89 43t21 149q0 55 -16 121l-109 -4q-67 -2 -67 -157zM424 938q0 -66 14 -127l107 4q32 1 47.5 49t15.5 121q0 80 -10 121q-32 4 -70 4q-61 0 -82.5 -36.5t-21.5 -135.5z" />
<glyph unicode="9" horiz-adv-x="991" d="M63 848q0 147 28 249.5t86.5 163.5t139.5 88t195 27q89 0 152 -15.5t114 -53t81.5 -102.5t46.5 -163t16 -235q0 -127 -5.5 -223t-20 -185.5t-39.5 -152.5t-63.5 -115.5t-92.5 -83.5t-126 -48t-165 -17q-177 0 -301 28l20 320q83 -25 223 -25q52 0 81.5 1.5t57 9.5 t40 19.5t22.5 36t12.5 55t3.5 79.5q-46 -22 -114.5 -36.5t-126.5 -14.5q-80 0 -133.5 27.5t-81.5 83t-39 122t-11 160.5zM385 864q0 -55 12 -137q16 -2 58 -2q65 0 123 25q-4 237 -19 335q-32 7 -57 7q-65 0 -91 -47t-26 -181z" />
<glyph unicode=":" horiz-adv-x="477" d="M88 0v338h301v-338h-301zM88 748v337h301v-337h-301z" />
<glyph unicode=";" horiz-adv-x="477" d="M88 -205v543h301v-272l-88 -271h-213zM88 748v337h301v-337h-301z" />
<glyph unicode="&#x3c;" horiz-adv-x="901" d="M47 508v246l770 295v-281l-389 -129v-4l389 -141v-277z" />
<glyph unicode="=" horiz-adv-x="901" d="M66 326v254h770v-254h-770zM66 698v252h770v-252h-770z" />
<glyph unicode="&#x3e;" horiz-adv-x="901" d="M84 213v281l389 129v4l-389 141v276l770 -290v-246z" />
<glyph unicode="?" horiz-adv-x="761" d="M43 1329q164 47 350 47q180 0 257 -83t77 -249q0 -42 -6.5 -80t-23.5 -74.5t-30 -61t-43 -60t-43.5 -50.5t-51.5 -53t-48 -49v-184h-311v297l135 115q39 34 55.5 68t16.5 79q0 44 -8 64q-20 4 -58 4q-109 0 -248 -41zM162 0v311h330v-311h-330z" />
<glyph unicode="@" horiz-adv-x="1368" d="M61 387q0 401 197.5 640t527.5 239q125 0 217 -22.5t149 -61.5t91.5 -100.5t47 -129t12.5 -157.5q0 -65 -13 -138t-37.5 -148.5t-65 -144t-92 -122t-122 -85.5t-150.5 -32q-48 0 -100 12l8 162h-4q-46 -74 -103 -124t-116 -50q-62 0 -96.5 68.5t-34.5 160.5 q0 80 6.5 149.5t22 145t46 134.5t75 107.5t112.5 74.5t154 26q122 0 233 -47l-123 -670q52 17 93.5 68t65 114t39 139.5t20.5 137.5t5 115q0 113 -43 199q-138 57 -282 57q-260 0 -406.5 -179.5t-146.5 -541.5q0 -120 25 -198.5t65 -143.5q71 -16 201 -16q70 0 168.5 12 t140.5 26l-27 -169q-58 -16 -156.5 -26.5t-175.5 -10.5q-219 0 -323.5 132.5t-104.5 397.5zM586 340q68 21 133 90l69 383q-28 4 -38 4q-80 0 -122 -120t-42 -353v-4z" />
<glyph unicode="A" horiz-adv-x="1069" d="M-4 0l319 1352h443l311 -1352h-360l-39 221h-289l-39 -221h-346zM430 498h193l-62 344q-24 129 -31 233h-6q-11 -102 -32 -235z" />
<glyph unicode="B" horiz-adv-x="1030" d="M92 0v1352q192 12 479 12q210 0 293.5 -80t83.5 -254q0 -212 -147 -291q88 -35 126 -114.5t38 -204.5q0 -96 -18 -167.5t-61 -131t-123.5 -90.5t-197.5 -31h-473zM432 289h92q53 0 77 36.5t26 114.5q0 72 -21 125q-32 4 -63 4q-49 0 -111 -4v-276zM432 809h78 q55 0 83 34.5t28 110.5q0 80 -21 127q-36 6 -68 6q-60 0 -100 -6v-272z" />
<glyph unicode="C" horiz-adv-x="851" d="M70 633q0 98 4.5 175.5t18 157t36 138.5t59 112.5t86.5 87t119.5 53t157.5 19.5q128 0 254 -41l-21 -311l-28 7q-28 7 -74.5 15.5t-83.5 8.5q-42 0 -68 -5t-47 -23.5t-31.5 -44t-17.5 -78t-8.5 -112t-1.5 -159.5q0 -240 22 -330q18 -2 62 -2q147 0 280 37v-313 q-39 -18 -132.5 -34t-163.5 -16q-60 0 -109.5 6.5t-88.5 21t-70 32.5t-54 48t-39.5 58.5t-27.5 73.5t-17.5 84.5t-10 99.5t-4.5 110t-1 124z" />
<glyph unicode="D" horiz-adv-x="1075" d="M92 0v1352q189 12 477 12q79 0 139.5 -11t107.5 -33t79.5 -60.5t54.5 -87t34.5 -119.5t18 -151.5t5.5 -188.5q0 -101 -5 -179.5t-18.5 -155.5t-36.5 -132.5t-59.5 -104t-86.5 -78.5t-119 -46.5t-155 -16.5h-436zM446 293h78q28 0 48 9.5t34 33t22.5 53t13 79.5t6 102.5 t1.5 131.5q0 245 -35 365q-50 4 -73 4q-20 0 -95 -6v-772z" />
<glyph unicode="E" horiz-adv-x="866" d="M92 0v1352h699l-11 -314h-334v-207h322v-296h-322v-218h342v-317h-696z" />
<glyph unicode="F" horiz-adv-x="819" d="M92 0v1352h666l-8 -314h-306v-295h295v-307h-295v-436h-352z" />
<glyph unicode="G" horiz-adv-x="1013" d="M68 633q0 150 13.5 260.5t48.5 205.5t93.5 153.5t150.5 91t218 32.5q179 0 332 -49l-19 -307l-43 8q-44 9 -111 19t-114 10q-48 0 -78.5 -5.5t-56.5 -22.5t-40 -44t-23.5 -76.5t-13 -113.5t-3.5 -160q0 -259 29 -354q16 -2 41 -2q74 0 137 14v225h-92v275h397v-725 q-61 -33 -192.5 -63t-239.5 -30q-89 0 -156.5 17.5t-113.5 43.5t-77 76.5t-48.5 96t-26 124.5t-10.5 139t-2 161z" />
<glyph unicode="H" horiz-adv-x="1099" d="M92 0v1352h354v-506h209v506h353v-1352h-353v524h-209v-524h-354z" />
<glyph unicode="I" horiz-adv-x="538" d="M92 0v1352h354v-1352h-354z" />
<glyph unicode="J" horiz-adv-x="565" d="M-23 -78q108 143 144 225v1205h354v-1088q0 -97 -16.5 -172.5t-52.5 -137.5t-75.5 -107t-103.5 -103z" />
<glyph unicode="K" horiz-adv-x="1089" d="M92 0v1352h354v-525l33 2l217 523h373l-291 -680l307 -666l-383 -18l-225 544h-31v-532h-354z" />
<glyph unicode="L" horiz-adv-x="765" d="M92 0v1352h354v-1035h285l-4 -317h-635z" />
<glyph unicode="M" horiz-adv-x="1490" d="M57 0l97 1352h440l108 -545q35 -197 43 -279h7q1 32 16.5 126t28.5 153l116 545h430l87 -1352h-332l-23 530q-5 148 -5 224q0 32 1 51h-6q-14 -88 -64 -275l-139 -530h-258l-123 532q-20 81 -37.5 170.5t-19.5 110.5h-6q2 -19 2 -54q0 -77 -8 -229l-23 -530h-332z" />
<glyph unicode="N" horiz-adv-x="1157" d="M92 0v1352h354l199 -473q60 -140 88 -226h6q-6 198 -6 252v447h332v-1352h-352l-201 453q-23 52 -88 225h-6q6 -198 6 -254v-424h-332z" />
<glyph unicode="O" d="M66 653q0 130 12 231t45 196.5t87.5 158t145 100t211.5 37.5q85 0 151 -15.5t113 -42.5t80 -73.5t53 -97.5t31.5 -126.5t15 -148.5t3.5 -174q0 -130 -12 -231t-44.5 -196.5t-87.5 -158t-145 -100t-211 -37.5q-74 0 -133.5 11t-104.5 34.5t-79 54.5t-57 77.5t-37.5 95.5 t-22.5 117t-11 134t-3 154zM420 655q0 -259 26 -366q27 -6 66 -6q34 0 58.5 9.5t41 33.5t26.5 53.5t15.5 81t7 103t1.5 132.5q0 246 -27 367q-24 8 -64 8q-34 0 -58.5 -10t-41.5 -34t-27 -54t-15.5 -81.5t-7 -104t-1.5 -132.5z" />
<glyph unicode="P" horiz-adv-x="1038" d="M92 0v1352q166 12 483 12q123 0 206 -29t129 -89t64.5 -138t18.5 -190q0 -562 -401 -562h-146v-356h-354zM446 655h91q56 0 82 50.5t26 164.5q0 113 -24 197q-36 6 -74 6q-74 0 -101 -6v-412z" />
<glyph unicode="Q" d="M66 653q0 130 12 231t45 196.5t87.5 158t145 100t211.5 37.5q85 0 151 -15.5t113 -42.5t80 -73.5t53 -97.5t31.5 -126.5t15 -148.5t3.5 -174q0 -409 -140 -577l213 -182l-241 -218l-283 256q-8 0 -24.5 -1t-24.5 -1q-74 0 -133.5 11t-104.5 34.5t-79 54.5t-57 77.5 t-37.5 95.5t-22.5 117t-11 134t-3 154zM420 655q0 -259 26 -366q27 -6 66 -6q34 0 58.5 9.5t41 33.5t26.5 53.5t15.5 81t7 103t1.5 132.5q0 246 -27 367q-24 8 -64 8q-34 0 -58.5 -10t-41.5 -34t-27 -54t-15.5 -81.5t-7 -104t-1.5 -132.5z" />
<glyph unicode="R" horiz-adv-x="1062" d="M92 0v1352q222 12 498 12q116 0 195 -27t124 -82t63.5 -127.5t18.5 -175.5q0 -179 -34.5 -290.5t-122.5 -165.5l196 -490l-360 -22l-164 465h-60v-449h-354zM446 698h91q61 0 83.5 40t22.5 153q0 126 -22 176q-36 6 -70 6q-78 0 -105 -6v-369z" />
<glyph unicode="S" horiz-adv-x="823" d="M59 16v336q136 -53 273 -53q21 0 61 4q6 21 6 51q0 36 -18.5 69.5t-79.5 115.5l-104 141q-26 35 -43 62t-38.5 68.5t-32.5 87t-11 93.5q0 187 107 286t317 99q135 0 270 -33l-18 -313q-6 1 -28 6.5t-36 8.5t-36.5 6.5t-46 5.5t-48.5 2q-107 0 -107 -78q0 -12 1.5 -22 t7 -22t9 -20t14 -22.5t16 -22t21 -26.5t22.5 -29l108 -141q56 -72 87.5 -142t31.5 -161q0 -176 -110.5 -287t-317.5 -111q-157 0 -277 41z" />
<glyph unicode="T" horiz-adv-x="870" d="M31 1038v314h805v-314h-226v-1038h-352v1038h-227z" />
<glyph unicode="U" horiz-adv-x="1089" d="M86 494v858h352v-838q0 -136 15 -225q36 -8 75 -8q71 0 97 47.5t26 185.5v838h353v-856q0 -128 -22 -221t-61 -151t-102.5 -92t-135.5 -46.5t-171 -12.5q-125 1 -208 31.5t-131 98t-67.5 160.5t-19.5 231z" />
<glyph unicode="V" horiz-adv-x="1067" d="M10 1352h361l100 -682q38 -257 49 -402h6q18 161 56 404l114 680h371l-295 -1352h-487z" />
<glyph unicode="W" horiz-adv-x="1587" d="M8 1352h367l76 -621q23 -203 24 -256h6q5 65 37 256l113 621h332l94 -621q29 -200 33 -256h6q5 102 28 256l93 621h354l-240 -1352h-440l-84 514q-21 129 -35 254h-6q-8 -100 -33 -254l-84 -514h-387z" />
<glyph unicode="X" horiz-adv-x="1093" d="M12 0l250 698l-229 654h389l82 -363q19 -82 28 -166h7q12 76 41 170l106 359h381l-260 -676l278 -676h-387l-127 381q-30 98 -36 160h-7q-6 -61 -36 -168l-113 -373h-367z" />
<glyph unicode="Y" horiz-adv-x="1015" d="M6 1352h367l102 -430q27 -116 33 -193h6q5 63 37 195l113 428h364l-348 -910v-442h-354v442z" />
<glyph unicode="Z" horiz-adv-x="901" d="M55 0v317l373 721h-340v314h737v-314l-362 -721h375v-317h-783z" />
<glyph unicode="[" horiz-adv-x="614" d="M117 -246v1721h448v-222h-203v-1278h203v-221h-448z" />
<glyph unicode="\" horiz-adv-x="937" d="M27 1475h256l628 -1721h-256z" />
<glyph unicode="]" horiz-adv-x="614" d="M49 -25h203v1278h-203v222h449v-1721h-449v221z" />
<glyph unicode="^" horiz-adv-x="942" d="M33 764l295 588h286l295 -588h-245l-197 416l-197 -416h-237z" />
<glyph unicode="_" horiz-adv-x="770" d="M82 0h606v-287h-606v287z" />
<glyph unicode="`" horiz-adv-x="796" d="M127 1288l78 234l479 -197l-55 -168z" />
<glyph unicode="a" horiz-adv-x="968" d="M45 315q0 342 377 342q63 0 113 -6v29q0 52 -13 119q-38 6 -86 6q-163 0 -305 -49l-22 286q63 26 190 47t252 21q181 0 258.5 -77t77.5 -257v-776h-328v102h-4q-42 -49 -111 -84.5t-151 -35.5q-128 0 -188 83.5t-60 249.5zM367 338q0 -70 12 -100q15 -5 49 -5 q55 0 107 27v203q-23 2 -72 2q-96 0 -96 -127z" />
<glyph unicode="b" horiz-adv-x="1056" d="M86 33v1362l352 39v-453h4q41 50 110 89.5t155 39.5q62 0 109 -17t78.5 -53t51.5 -80.5t30.5 -111t14.5 -132t4 -155.5q0 -129 -21.5 -227.5t-60.5 -165t-98 -108.5t-129 -60t-158 -18q-278 0 -442 51zM438 268q25 -10 72 -10q36 0 58 8t43.5 35t31.5 85t10 151 q0 177 -24 260q-16 4 -39 4q-68 0 -152 -39v-494z" />
<glyph unicode="c" horiz-adv-x="802" d="M61 532q0 296 111 437t346 141q133 0 234 -39l-25 -293q-82 25 -176 25q-27 0 -45.5 -4t-39 -19t-32.5 -42.5t-20 -76.5t-8 -118q0 -169 16 -260h2q75 0 162 13.5t139 29.5l20 -295q-44 -20 -133.5 -38t-185.5 -18q-80 0 -139 15.5t-99 50t-65.5 78t-38.5 111t-18 136 t-5 166.5z" />
<glyph unicode="d" horiz-adv-x="1054" d="M61 524q0 131 23.5 231t64.5 164t101.5 105t128.5 57.5t151 16.5q28 0 82 -4v301l355 39v-1434h-334v129h-4q-22 -28 -41 -47t-54 -45.5t-81.5 -40.5t-100.5 -14q-73 0 -126 27t-84.5 71.5t-50 116.5t-24.5 147.5t-6 179.5zM406 549q0 -154 24 -252q10 -2 41 -2 q66 0 141 35v487q-30 6 -61 6q-36 0 -59 -8.5t-44.5 -35.5t-31.5 -84t-10 -146z" />
<glyph unicode="e" horiz-adv-x="960" d="M61 545q0 298 113.5 431.5t347.5 133.5q97 0 167.5 -23.5t111 -61t64 -97.5t31 -119.5t7.5 -140.5q0 -126 -18 -252l-475 -29q4 -84 14 -119q40 -4 82 -4q150 0 342 47l20 -274q-42 -22 -154.5 -42t-246.5 -20q-63 0 -115.5 10.5t-91.5 28t-69.5 46t-51.5 58t-35.5 72 t-22.5 79.5t-13 88.5t-6 92t-1 95.5zM408 586l178 12q2 33 2 74q0 100 -17 166q-24 8 -45 8q-28 0 -44 -3.5t-32.5 -17.5t-24 -42t-12.5 -76t-5 -121z" />
<glyph unicode="f" horiz-adv-x="727" d="M49 678v264l96 25v141q0 166 74 245t242 79q146 0 256 -27l-21 -283q-50 13 -118 13q-48 0 -80 -7q-6 -42 -6 -129v-18l202 8v-287l-194 -8v-694h-355v682z" />
<glyph unicode="g" horiz-adv-x="1019" d="M47 -106q0 79 49.5 124t130.5 74v4l-133 76q20 104 101 246q-84 47 -112 126t-28 199q0 103 33 175.5t98 114t149 59.5t197 18h35l4 233l375 41v-57l-133 -268q48 -24 79.5 -59t46.5 -80.5t20.5 -88.5t5.5 -100q0 -371 -478 -371q-47 0 -67 2q-19 -43 -31 -92h182 q98 0 166 -10.5t123 -37.5t82 -77.5t27 -126.5q0 -161 -139 -253.5t-367 -92.5q-416 0 -416 222zM379 -37q0 -39 4 -59q57 -17 123 -17q141 0 141 86q0 35 -10 58q-32 8 -98 8h-150q-10 -38 -10 -76zM420 733q0 -97 14 -158q24 -8 49 -8q29 0 47 5t35 20t25 48t8 85 q0 108 -14 160q-12 6 -47 6q-61 0 -89 -29.5t-28 -128.5z" />
<glyph unicode="h" horiz-adv-x="1087" d="M88 0v1395l354 39v-447h4q56 46 140.5 84.5t173.5 38.5q123 0 183.5 -56t60.5 -180v-874h-355v678q0 72 -8 113q-23 4 -49 4q-79 0 -150 -43v-752h-354z" />
<glyph unicode="i" horiz-adv-x="530" d="M84 1180v231l362 21v-232zM88 0v1079l354 21v-1100h-354z" />
<glyph unicode="j" horiz-adv-x="530" d="M-49 -150q78 106 141 226v1003l352 21v-953q0 -159 -54 -259t-189 -216zM88 1180v231l363 21v-232z" />
<glyph unicode="k" horiz-adv-x="1040" d="M88 0v1395l352 39v-764h29l195 409l374 21l-260 -533l269 -559l-388 -22l-186 444h-33v-430h-352z" />
<glyph unicode="l" horiz-adv-x="530" d="M88 0v1395l354 39v-1434h-354z" />
<glyph unicode="m" horiz-adv-x="1605" d="M88 0v1079l332 21v-135h4q168 145 340 145q164 0 207 -131q70 53 160 92t174 39q217 0 217 -223v-887h-355v649q0 103 -8 144q-10 2 -41 2q-81 -7 -135 -37v-758h-354v649q0 103 -8 144q-10 2 -43 2q-83 -7 -138 -39v-756h-352z" />
<glyph unicode="n" horiz-adv-x="1087" d="M88 0v1079l332 21v-127h4q64 54 153 95.5t181 41.5q123 0 184.5 -56.5t61.5 -179.5v-874h-355v678q0 72 -8 113q-23 4 -49 4q-84 0 -152 -45v-750h-352z" />
<glyph unicode="o" horiz-adv-x="1044" d="M59 543q0 567 486 567q83 0 148 -15.5t111 -41.5t79 -67.5t52.5 -86t31 -105.5t15 -117.5t3.5 -129.5q0 -127 -25 -226t-68 -163.5t-105 -106t-132.5 -59t-154.5 -17.5q-83 0 -148.5 16t-111.5 42t-79 68t-52.5 87t-31 106.5t-15 118t-3.5 130.5zM414 553q0 -195 18 -289 q32 -12 57 -12q26 0 43 3.5t37.5 19t32.5 44t20.5 83.5t8.5 133q0 193 -21 288q-26 13 -55 13q-27 0 -44 -3.5t-37.5 -19t-32 -44.5t-19.5 -83.5t-8 -132.5z" />
<glyph unicode="p" horiz-adv-x="1060" d="M88 -328v1407l332 21v-139h4q38 55 115 102t170 47q74 0 126.5 -26t83.5 -69t49 -115.5t23.5 -147t5.5 -181.5q0 -162 -31 -275.5t-93 -180.5t-145.5 -97t-197.5 -30q-63 0 -90 2v-279zM440 270q30 -6 72 -6q25 0 43.5 5t38.5 22t32.5 46.5t20.5 81.5t8 124 q0 163 -24 254q-8 4 -39 4q-68 0 -152 -39v-492z" />
<glyph unicode="q" horiz-adv-x="1054" d="M61 520q0 166 32.5 282.5t96 183t146 95.5t194.5 29q136 0 222 -49l215 41v-1391l-355 -39v432h-4q-37 -48 -104 -85t-152 -37q-73 0 -126 27t-84.5 71.5t-50 116.5t-24.5 146.5t-6 176.5zM406 553q0 -162 24 -256q16 -4 41 -4q61 0 141 37v497q-40 9 -57 9 q-39 0 -63.5 -10t-45.5 -39.5t-30.5 -87t-9.5 -146.5z" />
<glyph unicode="r" horiz-adv-x="755" d="M88 0v1079l332 21v-221h4q105 225 221 225q64 0 92 -12l-30 -330q-149 -5 -267 -74v-688h-352z" />
<glyph unicode="s" horiz-adv-x="765" d="M51 4l17 311q104 -34 211 -34q29 0 69 4q6 15 6 32q0 43 -55 95l-106 104q-127 127 -127 283q0 148 97.5 229.5t280.5 81.5q126 0 263 -31l-21 -297q-113 21 -168 21q-84 0 -84 -53q0 -33 47 -80l111 -109q121 -118 121 -262q0 -161 -98 -242.5t-289 -81.5 q-161 0 -275 29z" />
<glyph unicode="t" horiz-adv-x="698" d="M37 778v266l108 25l27 242l313 35v-261l162 7v-285l-162 -8v-383q0 -80 9 -135q59 2 139 24l35 -276q-36 -23 -125.5 -38.5t-147.5 -15.5q-135 2 -198.5 65t-63.5 212v530z" />
<glyph unicode="u" d="M82 244v835l352 21v-682q0 -72 15 -113q8 -2 36 -2q81 0 154 45v731l352 21v-1100h-329v127h-5q-45 -49 -138.5 -97t-203.5 -48q-112 0 -172.5 66.5t-60.5 195.5z" />
<glyph unicode="v" horiz-adv-x="1036" d="M6 1085h389l90 -587q28 -188 29 -234h6q11 94 41 236l121 585h348l-268 -1085h-488z" />
<glyph unicode="w" horiz-adv-x="1513" d="M18 1085h367l47 -538q17 -187 17 -228h6q4 55 39 232l106 534h320l90 -534q24 -160 30 -232h7q3 73 24 228l82 538h352l-239 -1085h-437l-57 360q-28 188 -29 234h-6q-5 -62 -37 -234l-71 -360h-391z" />
<glyph unicode="x" horiz-adv-x="1030" d="M0 0l219 555l-176 524l379 25l63 -283q24 -107 31 -166h6q8 64 33 166l68 264h395l-203 -530l191 -549l-367 -24l-90 333q-20 75 -31 166h-6q-8 -68 -35 -172l-80 -309h-397z" />
<glyph unicode="y" horiz-adv-x="1042" d="M10 1085h377l102 -563q17 -96 27 -190h6q6 63 27 190l96 563h385l-242 -1087q-16 -72 -41.5 -126.5t-69 -101.5t-112 -71.5t-159.5 -24.5q-79 0 -148.5 9t-98.5 17t-44 15v299q125 -32 229 -32q58 0 87 18.5t38 67.5l8 53h-233z" />
<glyph unicode="z" horiz-adv-x="811" d="M49 0v283l313 520h-286v282h669v-282l-294 -520h305l-4 -283h-703z" />
<glyph unicode="{" horiz-adv-x="667" d="M16 522v178q9 2 27.5 7.5t54 23t64.5 39.5t51.5 59.5t22.5 81.5v242q0 138 76.5 222.5t252.5 115.5l70 -182q-100 -20 -130 -68t-30 -149v-174q0 -50 -9.5 -88.5t-35 -78.5t-77 -73.5t-128.5 -61.5v-6l250 -131v-373q0 -90 35.5 -128t128.5 -72l-72 -180q-89 9 -161.5 42 t-121 97.5t-48.5 150.5v375z" />
<glyph unicode="|" horiz-adv-x="479" d="M117 -246v1721h245v-1721h-245z" />
<glyph unicode="}" horiz-adv-x="667" d="M29 1309l71 180q89 -9 162 -42.5t121.5 -98t48.5 -150.5v-375l219 -131v-178q-9 -2 -27.5 -7.5t-53.5 -23t-64 -39.5t-51.5 -59.5t-22.5 -81.5v-242q0 -138 -77 -222t-253 -115l-69 182q100 20 130 68t30 149v174q0 50 9.5 88.5t35 78t76.5 73t128 61.5v6l-249 131v373 q0 48 -9 80t-32 54t-49.5 36t-73.5 31z" />
<glyph unicode="~" horiz-adv-x="901" d="M45 729q43 41 114 80t113 39q49 0 102 -24.5t91.5 -55t85.5 -59.5t84 -35l174 88l47 -223q-43 -43 -114 -83t-113 -40q-49 0 -102.5 26t-92.5 58t-86.5 62t-85.5 36l-170 -92z" />
<glyph unicode="&#xa1;" horiz-adv-x="552" d="M84 -305l53 958h291l33 -919zM117 774v311h334v-311h-334z" />
<glyph unicode="&#xa2;" horiz-adv-x="796" d="M45 532q0 246 75 384.5t234 177.5v239h189v-225q105 -3 192 -37l-24 -293q-82 25 -176 25q-27 0 -45.5 -4t-39 -19t-33 -42.5t-20.5 -76.5t-8 -118q0 -170 19 -260q75 0 162 13.5t139 29.5l20 -295q-62 -30 -186 -45v-232h-189v223q-67 6 -117 25t-84 54.5t-55.5 79 t-33 108.5t-15.5 130.5t-4 157.5z" />
<glyph unicode="&#xa3;" horiz-adv-x="897" d="M41 252l170 301h-131v178h133q-33 235 -33 313q0 155 88.5 243.5t259.5 88.5q166 0 301 -45l-16 -303q-121 27 -178 27q-60 0 -84.5 -27t-24.5 -80q0 -61 19 -217h250v-178h-240l-115 -236h373l-2 -317h-735z" />
<glyph unicode="&#xa4;" horiz-adv-x="1263" d="M51 297l158 152q-66 111 -66 241q0 125 66 242l-158 153l182 183l156 -156q116 64 240 64q129 0 241 -64l156 158l184 -180l-157 -160q61 -110 61 -240t-61 -237l157 -156l-184 -186l-156 157q-114 -65 -241 -65q-123 0 -240 65l-153 -153zM406 692q0 -92 65.5 -158.5 t157.5 -66.5q93 0 158 66t65 159t-65 158t-158 65q-92 0 -157.5 -65.5t-65.5 -157.5z" />
<glyph unicode="&#xa5;" horiz-adv-x="1087" d="M37 1352h369l131 -578h8l145 578h365l-234 -607h131v-180h-200l-39 -102h239v-178h-243v-285h-353v285h-241v178h237l-37 102h-200v180h137z" />
<glyph unicode="&#xa6;" horiz-adv-x="483" d="M119 -246v701h246v-701h-246zM119 774v701h246v-701h-246z" />
<glyph unicode="&#xa7;" horiz-adv-x="1038" d="M37 610q0 109 47.5 193.5t128.5 136.5q-27 68 -27 150q0 128 101 207t270 79q86 0 171.5 -13t123 -23.5t45.5 -14.5l-29 -299q-56 15 -149.5 34t-128.5 19q-60 0 -60 -43q0 -12 3.5 -22.5t7 -17.5t14.5 -17t17 -15t24 -18t27 -20l344 -256q14 -33 24 -102.5t10 -102.5 q0 -121 -48.5 -210.5t-125.5 -141.5q31 -70 31 -138q0 -128 -90 -211t-262 -83q-103 0 -213 17t-162 32l23 303q61 -18 162 -35.5t194 -17.5q29 0 41 2q-24 61 -127 139l-328 239q-59 133 -59 250zM315 657q0 -37 13 -69l366 -283q0 -1 1 -2t1 -2q33 57 33 111q0 39 -10 69 l-367 283q-37 -47 -37 -107z" />
<glyph unicode="&#xa8;" horiz-adv-x="796" d="M41 1198v223l311 19v-226zM444 1198v223l312 19v-226z" />
<glyph unicode="&#xa9;" horiz-adv-x="1337" d="M63 649q0 348 163 538.5t466 190.5t443.5 -174.5t140.5 -505.5q0 -345 -166 -535t-473 -190q-129 0 -228.5 33.5t-164 92t-106 145t-58.5 185.5t-17 220zM231 684q0 -183 38.5 -297.5t101.5 -206.5q114 -49 245 -49q257 0 376.5 132t119.5 409q0 175 -35.5 283t-95.5 198 q-130 72 -270 72q-250 0 -365 -131t-115 -410zM406 647q0 86 6 149t25 125.5t51 101.5t87 63t130 24t159 -25l-12 -196l-4 1q-3 1 -9.5 3t-15 4t-19.5 4l-22 4t-23.5 3t-23.5 1q-30 0 -48 -6.5t-30.5 -19.5t-18 -46.5t-7.5 -74.5t-2 -115q0 -138 14 -203h37q94 0 174 25 v-199q-26 -11 -83.5 -20.5t-102.5 -9.5q-53 0 -93.5 9.5t-68.5 24.5t-47 44.5t-29.5 57.5t-15.5 77t-6.5 88.5t-1.5 105.5z" />
<glyph unicode="&#xaa;" horiz-adv-x="772" d="M61 778q0 260 283 260q34 0 84 -4v17q0 40 -8 90q-20 2 -64 2q-132 0 -233 -37l-17 221q48 19 144.5 34t189.5 15q136 0 195 -59t59 -195v-583h-245v84h-5q-28 -37 -80 -66t-116 -29q-98 0 -142.5 62.5t-44.5 187.5zM303 795q0 -55 10 -72q6 -4 35 -4q42 0 80 20v152 q-8 0 -26 1t-27 1q-72 0 -72 -98z" />
<glyph unicode="&#xab;" d="M43 569l203 465h309l-201 -465l199 -481h-307zM520 569l205 465h307l-201 -465l199 -481h-305z" />
<glyph unicode="&#xac;" horiz-adv-x="901" d="M55 547v270h770v-493h-278v223h-492z" />
<glyph unicode="&#xad;" horiz-adv-x="757" d="M88 473v287h582v-287h-582z" />
<glyph unicode="&#xae;" horiz-adv-x="921" d="M53 934q0 210 111 327t303 117q193 0 297 -109.5t104 -310.5q0 -209 -112 -326.5t-305 -117.5q-398 0 -398 420zM178 942q0 -71 14 -128.5t30 -87t40 -62.5q82 -29 174 -29q154 0 230.5 78t76.5 239q0 96 -23.5 158t-62.5 115q-98 35 -174 35q-152 0 -228.5 -78 t-76.5 -240zM313 723v446q93 5 166 5q76 0 105.5 -34.5t29.5 -103.5q0 -116 -51 -149l66 -160l-123 -6l-53 147h-27v-145h-113zM426 948h41q20 0 27.5 15.5t7.5 52.5q0 42 -6 57q-1 0 -10.5 1t-16.5 1q-5 0 -22 -1t-21 -1v-125z" />
<glyph unicode="&#xaf;" horiz-adv-x="796" d="M94 1204v221l608 19v-223z" />
<glyph unicode="&#xb0;" horiz-adv-x="849" d="M45 1004q0 164 108 269t273 105q170 0 274.5 -104t104.5 -270q0 -161 -109 -266t-272 -105q-170 0 -274.5 104t-104.5 267zM268 1010q0 -80 33 -144q41 -18 109 -18q172 0 172 156q0 94 -31 145q-42 20 -115 20q-168 0 -168 -159z" />
<glyph unicode="&#xb1;" horiz-adv-x="901" d="M66 137v271h770v-271h-770zM66 719v272h241v215h281v-215h248v-272h-248v-221h-281v221h-241z" />
<glyph unicode="&#xb2;" horiz-adv-x="657" d="M45 559q0 106 21.5 172.5t78.5 120.5l181 168q30 34 30 72q0 23 -8 47q-14 2 -39 2q-81 0 -221 -31l-12 223q126 37 258 37q272 0 272 -248q0 -85 -24.5 -144.5t-77.5 -107.5l-166 -145q-23 -18 -23 -47l2 -19h267v-217h-533l-1 6q0 7 -1 18t-2 25t-1.5 32t-0.5 36z" />
<glyph unicode="&#xb3;" horiz-adv-x="649" d="M49 453l12 219q70 -17 134 -17q87 0 115 17.5t28 68.5q0 23 -6 58h-29q-83 0 -176 -8v202q40 3 137 8q47 3 64.5 22t17.5 56q0 30 -10 60q-8 2 -27 2q-100 0 -227 -25l-14 219q119 35 258 35q262 0 262 -235q0 -70 -24.5 -123t-67.5 -82v-4q92 -40 92 -207 q0 -144 -81.5 -215.5t-256.5 -71.5q-129 0 -201 21z" />
<glyph unicode="&#xb4;" horiz-adv-x="796" d="M123 1325l481 197l78 -234l-502 -131z" />
<glyph unicode="&#xb5;" horiz-adv-x="1191" d="M109 -328v1407l354 21v-674q0 -88 14 -119q8 -2 37 -2q84 0 154 45v729l352 21v-684q0 -82 6 -137q57 0 113 16l14 -281q-36 -17 -101.5 -28t-123.5 -11q-194 0 -232 154h-4q-93 -102 -229 -131v-287z" />
<glyph unicode="&#xb6;" horiz-adv-x="1280" d="M41 805q0 124 23 218.5t63.5 156.5t101.5 101t131 55t158 16h250v-1659h-186v553h-109q-432 0 -432 559zM889 -307v1659h356v-174h-168v-1485h-188z" />
<glyph unicode="&#xb7;" horiz-adv-x="473" d="M86 514v338h301v-338h-301z" />
<glyph unicode="&#xb8;" horiz-adv-x="796" d="M223 -246q90 0 122 8t32 33t-28.5 44t-96.5 36l-6 33l114 137q19 -13 55.5 -33t61 -36t50.5 -40t39.5 -58.5t13.5 -78.5q0 -89 -80.5 -129.5t-251.5 -40.5z" />
<glyph unicode="&#xb9;" horiz-adv-x="542" d="M31 1286l329 66h82v-910h-247v654l-150 -29z" />
<glyph unicode="&#xba;" horiz-adv-x="821" d="M63 946q0 430 365 430q73 0 128.5 -15t91 -45t58.5 -65.5t34.5 -87.5t15.5 -100t4 -113q0 -119 -28 -205t-79 -134.5t-114.5 -70.5t-143.5 -22q-87 1 -149 24t-97 59t-55 95t-25.5 115t-5.5 135zM330 954q0 -150 14 -219q24 -8 41 -8q20 0 32.5 2.5t28.5 14t24.5 33.5 t15 63t6.5 100q0 136 -17 219q-24 8 -39 8q-25 0 -40.5 -5.5t-32.5 -25t-25 -65t-8 -117.5z" />
<glyph unicode="&#xbb;" d="M47 88l201 465l-199 481h305l205 -481l-205 -465h-307zM524 88l201 465l-199 481h308l202 -481l-202 -465h-310z" />
<glyph unicode="&#xbc;" horiz-adv-x="1660" d="M35 1286l330 66h81v-910h-247v654l-150 -29zM322 0l669 1352h230l-670 -1352h-229zM944 367l219 542h379v-542h72v-211h-72v-156h-237v156h-342zM1182 352h129l8 238q5 144 6 151h-10q-5 -18 -47 -137z" />
<glyph unicode="&#xbd;" horiz-adv-x="1667" d="M35 1286l330 66h81v-910h-247v654l-150 -29zM317 0l670 1352h230l-670 -1352h-230zM1055 117q0 106 21.5 172.5t78.5 120.5l180 168q31 36 31 71q0 23 -8 47q-14 2 -39 2q-86 0 -221 -30l-13 223q126 37 258 37q273 0 273 -248q0 -85 -25 -144.5t-78 -107.5l-165 -145 q-23 -18 -23 -47l2 -19h266v-217h-532l-1 6q0 7 -1 18t-2 25t-1.5 32t-0.5 36z" />
<glyph unicode="&#xbe;" horiz-adv-x="1744" d="M53 453l13 219q70 -17 133 -17q87 0 115 17.5t28 68.5q0 23 -6 58h-29q-83 0 -176 -8v202q40 3 137 8q47 3 64.5 22t17.5 56q0 30 -10 60q-8 2 -27 2q-100 0 -227 -25l-14 219q119 35 258 35q262 0 262 -235q0 -70 -24.5 -123t-67.5 -82v-4q92 -40 92 -207 q0 -144 -81.5 -215.5t-256.5 -71.5q-129 0 -201 21zM406 0l669 1352h230l-670 -1352h-229zM1030 367l219 542h379v-542h72v-211h-72v-156h-237v156h-342zM1268 352h129l8 238q5 144 6 151h-10q-5 -18 -47 -137z" />
<glyph unicode="&#xbf;" horiz-adv-x="757" d="M33 41q0 42 6.5 80t23.5 74.5t30 61t43 60t43.5 50.5t51.5 53t48 49v184h311v-297l-135 -114q-38 -34 -55 -68t-17 -80q0 -43 8 -63q20 -4 58 -4q108 0 247 41l21 -312q-164 -47 -350 -47q-180 0 -257 83t-77 249zM268 774v311h330v-311h-330z" />
<glyph unicode="&#xc0;" horiz-adv-x="1069" d="M-4 0l319 1352h443l311 -1352h-360l-39 221h-289l-39 -221h-346zM297 1518l68 211l436 -175l-49 -151zM430 498h193l-62 344q-24 129 -31 233h-6q-11 -102 -32 -235z" />
<glyph unicode="&#xc1;" horiz-adv-x="1069" d="M-4 0l319 1352h443l311 -1352h-360l-39 221h-289l-39 -221h-346zM305 1554l434 175l68 -211l-453 -115zM430 498h193l-62 344q-24 129 -31 233h-6q-11 -102 -32 -235z" />
<glyph unicode="&#xc2;" horiz-adv-x="1069" d="M-4 0l319 1352h443l311 -1352h-360l-39 221h-289l-39 -221h-346zM229 1532l308 180l309 -180l-51 -127l-258 98l-256 -98zM430 498h193l-62 344q-24 129 -31 233h-6q-11 -102 -32 -235z" />
<glyph unicode="&#xc3;" horiz-adv-x="1069" d="M-4 0l319 1352h443l311 -1352h-360l-39 221h-289l-39 -221h-346zM221 1616q31 29 85.5 56.5t86.5 27.5q56 0 148.5 -46t144.5 -46q13 5 123 55l41 -162q-29 -31 -83.5 -57.5t-86.5 -26.5q-57 0 -150 45t-147 45q-50 -19 -121 -51zM430 498h193l-62 344q-24 129 -31 233 h-6q-11 -102 -32 -235z" />
<glyph unicode="&#xc4;" horiz-adv-x="1069" d="M-4 0l319 1352h443l311 -1352h-360l-39 221h-289l-39 -221h-346zM215 1425v201l281 16v-202zM430 498h193l-62 344q-24 129 -31 233h-6q-11 -102 -32 -235zM580 1425v201l280 16v-202z" />
<glyph unicode="&#xc5;" horiz-adv-x="1069" d="M-4 0l315 1335q-20 39 -20 95q0 89 63.5 140.5t180.5 51.5q122 0 184.5 -50.5t62.5 -141.5q0 -51 -22 -93l309 -1337h-360l-39 221h-289l-39 -221h-346zM430 498h193l-62 344q-24 129 -31 233h-6q-11 -102 -32 -235zM444 1430q0 -16 3.5 -30.5t7 -22t4.5 -7.5 q29 -12 76 -12q94 0 94 72q0 9 -1.5 19t-3.5 17t-4.5 13t-3.5 10l-2 4q-30 12 -77 12q-48 0 -70.5 -21t-22.5 -54z" />
<glyph unicode="&#xc6;" horiz-adv-x="1282" d="M-4 0l319 1352h893l-10 -314h-360l41 -209h307v-294h-250l43 -218h225v-317h-495l-39 221h-289l-39 -221h-346zM430 498h193l-60 344q-28 164 -33 233h-6q-5 -70 -32 -239z" />
<glyph unicode="&#xc7;" horiz-adv-x="851" d="M70 633q0 98 4.5 175.5t18 157t36 138.5t59 112.5t86.5 87t119.5 53t157.5 19.5q128 0 254 -41l-21 -311l-28 7q-28 7 -74.5 15.5t-83.5 8.5q-42 0 -68 -5t-47 -23.5t-31.5 -44t-17.5 -78t-8.5 -112t-1.5 -159.5q0 -240 22 -330q18 -2 62 -2q147 0 280 37v-313 q-66 -30 -223 -45q52 -32 80.5 -73.5t28.5 -107.5q0 -89 -80.5 -129.5t-251.5 -40.5l-25 125q90 0 122 8t32 33t-28.5 44t-96.5 36l-6 33l59 74q-52 5 -94 18.5t-74 31t-56.5 46.5t-41.5 57.5t-29 74t-18.5 85t-10 100.5t-4.5 111.5t-1 126.5z" />
<glyph unicode="&#xc8;" horiz-adv-x="866" d="M92 0v1352h699l-11 -314h-334v-207h322v-296h-322v-218h342v-317h-696zM203 1518l67 211l437 -175l-50 -151z" />
<glyph unicode="&#xc9;" horiz-adv-x="866" d="M92 0v1352h699l-11 -314h-334v-207h322v-296h-322v-218h342v-317h-696zM211 1554l434 175l68 -211l-453 -115z" />
<glyph unicode="&#xca;" horiz-adv-x="866" d="M92 0v1352h699l-11 -314h-334v-207h322v-296h-322v-218h342v-317h-696zM135 1532l307 180l310 -180l-52 -127l-258 98l-256 -98z" />
<glyph unicode="&#xcb;" horiz-adv-x="866" d="M92 0v1352h699l-11 -314h-334v-207h322v-296h-322v-218h342v-317h-696zM121 1425v201l280 16v-202zM485 1425v201l281 16v-202z" />
<glyph unicode="&#xcc;" horiz-adv-x="538" d="M29 1518l67 211l436 -175l-49 -151zM92 0v1352h354v-1352h-354z" />
<glyph unicode="&#xcd;" horiz-adv-x="538" d="M37 1554l434 175l68 -211l-453 -115zM92 0v1352h354v-1352h-354z" />
<glyph unicode="&#xce;" horiz-adv-x="538" d="M-39 1532l307 180l310 -180l-52 -127l-258 98l-256 -98zM92 0v1352h354v-1352h-354z" />
<glyph unicode="&#xcf;" horiz-adv-x="538" d="M-53 1425v201l280 16v-202zM92 0v1352h354v-1352h-354zM311 1425v201l281 16v-202z" />
<glyph unicode="&#xd0;" horiz-adv-x="1099" d="M29 600v176h88v576q189 12 477 12q92 0 159 -14t116.5 -48t80.5 -82t49.5 -124.5t25.5 -166t7 -216.5q0 -101 -5 -179.5t-18.5 -155.5t-36.5 -132.5t-59.5 -104t-86.5 -78.5t-118.5 -46.5t-154.5 -16.5h-436v600h-88zM471 293h78q28 0 48 9.5t34 33t22.5 53t13 79.5 t6 102.5t1.5 131.5q0 245 -35 365q-50 4 -74 4q-19 0 -94 -6v-289h127v-176h-127v-307z" />
<glyph unicode="&#xd1;" horiz-adv-x="1157" d="M92 0v1352h354l199 -473q60 -140 88 -226h6q-6 198 -6 252v447h332v-1352h-352l-201 453q-23 52 -88 225h-6q6 -198 6 -254v-424h-332zM256 1616q31 29 85.5 56.5t86.5 27.5q56 0 148.5 -46t144.5 -46q13 5 123 55l41 -162q-29 -31 -83.5 -57.5t-86.5 -26.5 q-57 0 -150 45t-147 45q-50 -19 -121 -51z" />
<glyph unicode="&#xd2;" d="M66 653q0 130 12 231t45 196.5t87.5 158t145 100t211.5 37.5q85 0 151 -15.5t113 -42.5t80 -73.5t53 -97.5t31.5 -126.5t15 -148.5t3.5 -174q0 -130 -12 -231t-44.5 -196.5t-87.5 -158t-145 -100t-211 -37.5q-74 0 -133.5 11t-104.5 34.5t-79 54.5t-57 77.5t-37.5 95.5 t-22.5 117t-11 134t-3 154zM315 1518l68 211l436 -175l-49 -151zM420 655q0 -259 26 -366q27 -6 66 -6q34 0 58.5 9.5t41 33.5t26.5 53.5t15.5 81t7 103t1.5 132.5q0 246 -27 367q-24 8 -64 8q-34 0 -58.5 -10t-41.5 -34t-27 -54t-15.5 -81.5t-7 -104t-1.5 -132.5z" />
<glyph unicode="&#xd3;" d="M66 653q0 130 12 231t45 196.5t87.5 158t145 100t211.5 37.5q85 0 151 -15.5t113 -42.5t80 -73.5t53 -97.5t31.5 -126.5t15 -148.5t3.5 -174q0 -130 -12 -231t-44.5 -196.5t-87.5 -158t-145 -100t-211 -37.5q-74 0 -133.5 11t-104.5 34.5t-79 54.5t-57 77.5t-37.5 95.5 t-22.5 117t-11 134t-3 154zM324 1554l434 175l67 -211l-452 -115zM420 655q0 -259 26 -366q27 -6 66 -6q34 0 58.5 9.5t41 33.5t26.5 53.5t15.5 81t7 103t1.5 132.5q0 246 -27 367q-24 8 -64 8q-34 0 -58.5 -10t-41.5 -34t-27 -54t-15.5 -81.5t-7 -104t-1.5 -132.5z" />
<glyph unicode="&#xd4;" d="M66 653q0 130 12 231t45 196.5t87.5 158t145 100t211.5 37.5q85 0 151 -15.5t113 -42.5t80 -73.5t53 -97.5t31.5 -126.5t15 -148.5t3.5 -174q0 -130 -12 -231t-44.5 -196.5t-87.5 -158t-145 -100t-211 -37.5q-74 0 -133.5 11t-104.5 34.5t-79 54.5t-57 77.5t-37.5 95.5 t-22.5 117t-11 134t-3 154zM248 1532l307 180l309 -180l-51 -127l-258 98l-256 -98zM420 655q0 -259 26 -366q27 -6 66 -6q34 0 58.5 9.5t41 33.5t26.5 53.5t15.5 81t7 103t1.5 132.5q0 246 -27 367q-24 8 -64 8q-34 0 -58.5 -10t-41.5 -34t-27 -54t-15.5 -81.5t-7 -104 t-1.5 -132.5z" />
<glyph unicode="&#xd5;" d="M66 653q0 130 12 231t45 196.5t87.5 158t145 100t211.5 37.5q85 0 151 -15.5t113 -42.5t80 -73.5t53 -97.5t31.5 -126.5t15 -148.5t3.5 -174q0 -130 -12 -231t-44.5 -196.5t-87.5 -158t-145 -100t-211 -37.5q-74 0 -133.5 11t-104.5 34.5t-79 54.5t-57 77.5t-37.5 95.5 t-22.5 117t-11 134t-3 154zM240 1616q31 29 85.5 56.5t86.5 27.5q56 0 148.5 -46t144.5 -46q2 1 122 55l41 -162q-29 -31 -83.5 -57.5t-86.5 -26.5q-57 0 -150 45t-147 45q-44 -16 -120 -51zM420 655q0 -259 26 -366q27 -6 66 -6q34 0 58.5 9.5t41 33.5t26.5 53.5t15.5 81 t7 103t1.5 132.5q0 246 -27 367q-24 8 -64 8q-34 0 -58.5 -10t-41.5 -34t-27 -54t-15.5 -81.5t-7 -104t-1.5 -132.5z" />
<glyph unicode="&#xd6;" d="M66 653q0 130 12 231t45 196.5t87.5 158t145 100t211.5 37.5q85 0 151 -15.5t113 -42.5t80 -73.5t53 -97.5t31.5 -126.5t15 -148.5t3.5 -174q0 -130 -12 -231t-44.5 -196.5t-87.5 -158t-145 -100t-211 -37.5q-74 0 -133.5 11t-104.5 34.5t-79 54.5t-57 77.5t-37.5 95.5 t-22.5 117t-11 134t-3 154zM233 1425v201l281 16v-202zM420 655q0 -259 26 -366q27 -6 66 -6q34 0 58.5 9.5t41 33.5t26.5 53.5t15.5 81t7 103t1.5 132.5q0 246 -27 367q-24 8 -64 8q-34 0 -58.5 -10t-41.5 -34t-27 -54t-15.5 -81.5t-7 -104t-1.5 -132.5zM598 1425v201 l281 16v-202z" />
<glyph unicode="&#xd7;" horiz-adv-x="901" d="M29 410l227 229l-227 229l192 191l228 -230l229 232l192 -193l-229 -229l229 -231l-192 -191l-229 229l-228 -227z" />
<glyph unicode="&#xd8;" d="M49 -133l117 246q-60 80 -80 207.5t-20 332.5q0 130 12 231t45 196.5t87.5 158t145 100t211.5 37.5q115 0 189 -26l65 133h209l-117 -244q60 -80 80.5 -208.5t20.5 -332.5q0 -130 -12 -231t-44.5 -196.5t-87.5 -158t-145 -100t-211 -37.5q-108 0 -188 25l-66 -133h-211z M389 653q0 -31 1 -86t1 -80h6q29 106 80 220l172 383q-35 6 -69 6q-43 0 -74 -10.5t-52 -36t-34 -57.5t-20 -86.5t-9 -111t-2 -141.5zM432 264q30 -6 70 -6q42 0 72.5 10.5t51.5 36t33.5 57t19.5 86.5t9 110.5t2 141.5v164h-6q-39 -121 -82 -217z" />
<glyph unicode="&#xd9;" horiz-adv-x="1089" d="M86 494v858h352v-838q0 -136 15 -225q36 -8 75 -8q71 0 97 47.5t26 185.5v838h353v-856q0 -128 -22 -221t-61 -151t-102.5 -92t-135.5 -46.5t-171 -12.5q-125 1 -208 31.5t-131 98t-67.5 160.5t-19.5 231zM305 1518l68 211l436 -175l-49 -151z" />
<glyph unicode="&#xda;" horiz-adv-x="1089" d="M86 494v858h352v-838q0 -136 15 -225q36 -8 75 -8q71 0 97 47.5t26 185.5v838h353v-856q0 -128 -22 -221t-61 -151t-102.5 -92t-135.5 -46.5t-171 -12.5q-125 1 -208 31.5t-131 98t-67.5 160.5t-19.5 231zM313 1554l435 175l67 -211l-453 -115z" />
<glyph unicode="&#xdb;" horiz-adv-x="1089" d="M86 494v858h352v-838q0 -136 15 -225q36 -8 75 -8q71 0 97 47.5t26 185.5v838h353v-856q0 -128 -22 -221t-61 -151t-102.5 -92t-135.5 -46.5t-171 -12.5q-125 1 -208 31.5t-131 98t-67.5 160.5t-19.5 231zM238 1532l307 180l309 -180l-51 -127l-258 98l-256 -98z" />
<glyph unicode="&#xdc;" horiz-adv-x="1089" d="M86 494v858h352v-838q0 -136 15 -225q36 -8 75 -8q71 0 97 47.5t26 185.5v838h353v-856q0 -128 -22 -221t-61 -151t-102.5 -92t-135.5 -46.5t-171 -12.5q-125 1 -208 31.5t-131 98t-67.5 160.5t-19.5 231zM223 1425v201l281 16v-202zM588 1425v201l280 16v-202z" />
<glyph unicode="&#xdd;" horiz-adv-x="1015" d="M6 1352h367l102 -430q27 -116 33 -193h6q5 63 37 195l113 428h364l-348 -910v-442h-354v442zM281 1554l434 175l67 -211l-452 -115z" />
<glyph unicode="&#xde;" horiz-adv-x="1042" d="M92 0v1352h354v-170q39 2 129 2q123 0 206 -29.5t129 -90t64.5 -139t18.5 -190.5q0 -561 -401 -561h-146v-174h-354zM446 473h91q56 0 82 50.5t26 164.5q0 113 -24 197q-30 6 -74 6q-51 0 -101 -4v-414z" />
<glyph unicode="&#xdf;" horiz-adv-x="1126" d="M88 0v1026q0 219 113 313.5t374 94.5q59 0 116 -7t117.5 -26.5t105 -49.5t73.5 -80.5t29 -115.5q0 -93 -41 -199l-86 -233l133 -197q74 -106 74 -219q0 -164 -84.5 -244.5t-261.5 -80.5q-111 0 -218 26l19 307q92 -30 192 -30h5q4 16 4 28q0 22 -29 70l-127 174 q-30 42 -38.5 72t-8.5 73q0 23 18 80t53 157.5t56 168.5q-66 16 -123 16t-84 -25.5t-27 -94.5v-1004h-354z" />
<glyph unicode="&#xe0;" horiz-adv-x="968" d="M45 315q0 342 377 342q63 0 113 -6v29q0 52 -13 119q-38 6 -86 6q-163 0 -305 -49l-22 286q63 26 190 47t252 21q181 0 258.5 -77t77.5 -257v-776h-328v102h-4q-42 -49 -111 -84.5t-151 -35.5q-128 0 -188 83.5t-60 249.5zM223 1288l78 234l479 -197l-55 -168zM367 338 q0 -70 12 -100q15 -5 49 -5q55 0 107 27v203q-23 2 -72 2q-96 0 -96 -127z" />
<glyph unicode="&#xe1;" horiz-adv-x="968" d="M45 315q0 342 377 342q63 0 113 -6v29q0 52 -13 119q-38 6 -86 6q-163 0 -305 -49l-22 286q63 26 190 47t252 21q181 0 258.5 -77t77.5 -257v-776h-328v102h-4q-42 -49 -111 -84.5t-151 -35.5q-128 0 -188 83.5t-60 249.5zM221 1325l481 197l78 -234l-501 -131zM367 338 q0 -70 12 -100q15 -5 49 -5q55 0 107 27v203q-23 2 -72 2q-96 0 -96 -127z" />
<glyph unicode="&#xe2;" horiz-adv-x="968" d="M45 315q0 342 377 342q63 0 113 -6v29q0 52 -13 119q-38 6 -86 6q-163 0 -305 -49l-22 286q63 26 190 47t252 21q181 0 258.5 -77t77.5 -257v-776h-328v102h-4q-42 -49 -111 -84.5t-151 -35.5q-128 0 -188 83.5t-60 249.5zM145 1294l342 205l344 -205l-57 -137l-287 111 l-284 -111zM367 338q0 -70 12 -100q15 -5 49 -5q55 0 107 27v203q-23 2 -72 2q-96 0 -96 -127z" />
<glyph unicode="&#xe3;" horiz-adv-x="968" d="M45 315q0 342 377 342q63 0 113 -6v29q0 52 -13 119q-38 6 -86 6q-163 0 -305 -49l-22 286q63 26 190 47t252 21q181 0 258.5 -77t77.5 -257v-776h-328v102h-4q-42 -49 -111 -84.5t-151 -35.5q-128 0 -188 83.5t-60 249.5zM137 1399q33 32 94 62t95 30q42 0 87 -18 t78.5 -39.5t77.5 -39.5t84 -18l138 62l47 -174q-33 -33 -93.5 -64t-95.5 -31q-42 0 -88 18t-80 39.5t-78 39.5t-84 18q-67 -26 -135 -57zM367 338q0 -70 12 -100q15 -5 49 -5q55 0 107 27v203q-23 2 -72 2q-96 0 -96 -127z" />
<glyph unicode="&#xe4;" horiz-adv-x="968" d="M45 315q0 342 377 342q63 0 113 -6v29q0 52 -13 119q-38 6 -86 6q-163 0 -305 -49l-22 286q63 26 190 47t252 21q181 0 258.5 -77t77.5 -257v-776h-328v102h-4q-42 -49 -111 -84.5t-151 -35.5q-128 0 -188 83.5t-60 249.5zM131 1198v223l311 19v-226zM367 338 q0 -70 12 -100q15 -5 49 -5q55 0 107 27v203q-23 2 -72 2q-96 0 -96 -127zM535 1198v223l311 19v-226z" />
<glyph unicode="&#xe5;" horiz-adv-x="968" d="M45 315q0 342 377 342q63 0 113 -6v29q0 52 -13 119q-38 6 -86 6q-163 0 -305 -49l-22 286q63 26 190 47t252 21q181 0 258.5 -77t77.5 -257v-776h-328v102h-4q-42 -49 -111 -84.5t-151 -35.5q-128 0 -188 83.5t-60 249.5zM215 1376q0 100 71 158.5t201 58.5 q135 0 205 -58t70 -159q0 -98 -72 -155.5t-203 -57.5q-133 0 -202.5 57t-69.5 156zM367 338q0 -70 12 -100q15 -5 49 -5q55 0 107 27v203q-23 2 -72 2q-96 0 -96 -127zM385 1376q0 -16 3.5 -33t7.5 -25l3 -9l5 -1q4 -1 11.5 -2.5t18 -3.5t24.5 -3t29 -1q105 0 105 78 q0 11 -2 22.5t-4 20.5t-4.5 16.5t-4.5 12.5l-2 4l-5 1q-4 1 -11.5 2.5t-17.5 3t-24 2.5t-28 1q-53 0 -78.5 -24t-25.5 -62z" />
<glyph unicode="&#xe6;" horiz-adv-x="1431" d="M45 319q0 343 377 343q28 0 110 -5v23q0 67 -10 119q-38 6 -86 6q-163 0 -305 -49l-22 286q64 27 181 47.5t240 20.5q147 0 211 -86q108 86 271 86q87 0 152 -22.5t104.5 -60.5t64 -96t33 -120.5t8.5 -142.5q0 -132 -20 -252l-473 -29q4 -84 14 -119q40 -4 82 -4 q148 0 340 47l20 -276q-41 -21 -153.5 -40.5t-245.5 -19.5q-215 0 -311 117q-54 -43 -133.5 -74.5t-169.5 -31.5q-279 0 -279 333zM367 342q0 -70 12 -100q12 -4 49 -4q60 0 123 36q-19 93 -19 193q-23 2 -69 2q-96 0 -96 -127zM879 586l176 12q2 33 2 74q0 108 -15 166 q-24 8 -47 8q-28 0 -43.5 -3.5t-31.5 -17.5t-23.5 -42t-12.5 -76t-5 -121z" />
<glyph unicode="&#xe7;" horiz-adv-x="802" d="M61 532q0 296 111 437t346 141q133 0 234 -39l-25 -293q-82 25 -176 25q-27 0 -45.5 -4t-39 -19t-32.5 -42.5t-20 -76.5t-8 -118q0 -169 16 -260h2q75 0 162 13.5t139 29.5l20 -295q-91 -40 -245 -51q50 -32 78 -74t28 -107q0 -89 -80.5 -129.5t-251.5 -40.5l-24 125 q90 0 121.5 8t31.5 33t-28.5 44t-95.5 36l-7 33l62 76q-70 10 -119.5 40.5t-79.5 74t-46.5 113t-22 142.5t-5.5 178z" />
<glyph unicode="&#xe8;" horiz-adv-x="960" d="M61 545q0 298 113.5 431.5t347.5 133.5q97 0 167.5 -23.5t111 -61t64 -97.5t31 -119.5t7.5 -140.5q0 -126 -18 -252l-475 -29q4 -84 14 -119q40 -4 82 -4q150 0 342 47l20 -274q-42 -22 -154.5 -42t-246.5 -20q-63 0 -115.5 10.5t-91.5 28t-69.5 46t-51.5 58t-35.5 72 t-22.5 79.5t-13 88.5t-6 92t-1 95.5zM242 1288l77 234l480 -197l-56 -168zM408 586l178 12q2 33 2 74q0 100 -17 166q-24 8 -45 8q-28 0 -44 -3.5t-32.5 -17.5t-24 -42t-12.5 -76t-5 -121z" />
<glyph unicode="&#xe9;" horiz-adv-x="960" d="M61 545q0 298 113.5 431.5t347.5 133.5q97 0 167.5 -23.5t111 -61t64 -97.5t31 -119.5t7.5 -140.5q0 -126 -18 -252l-475 -29q4 -84 14 -119q40 -4 82 -4q150 0 342 47l20 -274q-42 -22 -154.5 -42t-246.5 -20q-63 0 -115.5 10.5t-91.5 28t-69.5 46t-51.5 58t-35.5 72 t-22.5 79.5t-13 88.5t-6 92t-1 95.5zM240 1325l481 197l78 -234l-502 -131zM408 586l178 12q2 33 2 74q0 100 -17 166q-24 8 -45 8q-28 0 -44 -3.5t-32.5 -17.5t-24 -42t-12.5 -76t-5 -121z" />
<glyph unicode="&#xea;" horiz-adv-x="960" d="M61 545q0 298 113.5 431.5t347.5 133.5q97 0 167.5 -23.5t111 -61t64 -97.5t31 -119.5t7.5 -140.5q0 -126 -18 -252l-475 -29q4 -84 14 -119q40 -4 82 -4q150 0 342 47l20 -274q-42 -22 -154.5 -42t-246.5 -20q-63 0 -115.5 10.5t-91.5 28t-69.5 46t-51.5 58t-35.5 72 t-22.5 79.5t-13 88.5t-6 92t-1 95.5zM164 1294l342 205l344 -205l-57 -137l-287 111l-285 -111zM408 586l178 12q2 33 2 74q0 100 -17 166q-24 8 -45 8q-28 0 -44 -3.5t-32.5 -17.5t-24 -42t-12.5 -76t-5 -121z" />
<glyph unicode="&#xeb;" horiz-adv-x="960" d="M61 545q0 298 113.5 431.5t347.5 133.5q97 0 167.5 -23.5t111 -61t64 -97.5t31 -119.5t7.5 -140.5q0 -126 -18 -252l-475 -29q4 -84 14 -119q40 -4 82 -4q150 0 342 47l20 -274q-42 -22 -154.5 -42t-246.5 -20q-63 0 -115.5 10.5t-91.5 28t-69.5 46t-51.5 58t-35.5 72 t-22.5 79.5t-13 88.5t-6 92t-1 95.5zM150 1198v223l311 19v-226zM408 586l178 12q2 33 2 74q0 100 -17 166q-24 8 -45 8q-28 0 -44 -3.5t-32.5 -17.5t-24 -42t-12.5 -76t-5 -121zM553 1198v223l311 19v-226z" />
<glyph unicode="&#xec;" horiz-adv-x="530" d="M0 1288l78 234l479 -197l-55 -168zM88 0v1079l354 21v-1100h-354z" />
<glyph unicode="&#xed;" horiz-adv-x="530" d="M-2 1325l481 197l78 -234l-502 -131zM88 0v1079l354 21v-1100h-354z" />
<glyph unicode="&#xee;" horiz-adv-x="530" d="M-78 1294l342 205l344 -205l-57 -137l-287 111l-284 -111zM88 0v1079l354 21v-1100h-354z" />
<glyph unicode="&#xef;" horiz-adv-x="530" d="M-92 1198v223l311 19v-226zM88 0v1079l354 21v-1100h-354zM311 1198v223l312 19v-226z" />
<glyph unicode="&#xf0;" horiz-adv-x="1042" d="M57 479q0 135 32 232.5t90.5 152.5t129.5 80t160 25q56 0 98 -21l4 4q-43 109 -133 168l-170 -137l-78 102l115 93q-82 31 -211 47l111 211q184 -26 319 -82l158 129l78 -103l-111 -90q185 -115 258.5 -311.5t73.5 -493.5q0 -131 -37.5 -231t-104 -160.5t-152.5 -90.5 t-189 -30q-82 0 -148.5 16.5t-112 42.5t-79 66.5t-52.5 82t-30.5 95t-15 100t-3.5 103.5zM412 492q0 -160 12 -228q32 -14 63 -14q25 0 42.5 3t37.5 16t32 36t20 65.5t8 102.5q0 82 -11 229q-40 7 -61 7q-33 0 -55 -6.5t-44 -27.5t-33 -66.5t-11 -116.5z" />
<glyph unicode="&#xf1;" horiz-adv-x="1087" d="M88 0v1079l332 21v-127h4q64 54 153 95.5t181 41.5q123 0 184.5 -56.5t61.5 -179.5v-874h-355v678q0 72 -8 113q-23 4 -49 4q-84 0 -152 -45v-750h-352zM197 1399q33 32 93.5 62t94.5 30q42 0 87.5 -18t79 -39.5t77.5 -39.5t84 -18l137 62l47 -174q-33 -33 -93.5 -64 t-94.5 -31q-42 0 -88 18t-80 39.5t-78 39.5t-84 18q-67 -26 -135 -57z" />
<glyph unicode="&#xf2;" horiz-adv-x="1044" d="M59 543q0 567 486 567q83 0 148 -15.5t111 -41.5t79 -67.5t52.5 -86t31 -105.5t15 -117.5t3.5 -129.5q0 -127 -25 -226t-68 -163.5t-105 -106t-132.5 -59t-154.5 -17.5q-83 0 -148.5 16t-111.5 42t-79 68t-52.5 87t-31 106.5t-15 118t-3.5 130.5zM276 1288l78 234 l480 -197l-56 -168zM414 553q0 -195 18 -289q32 -12 57 -12q26 0 43 3.5t37.5 19t32.5 44t20.5 83.5t8.5 133q0 193 -21 288q-26 13 -55 13q-27 0 -44 -3.5t-37.5 -19t-32 -44.5t-19.5 -83.5t-8 -132.5z" />
<glyph unicode="&#xf3;" horiz-adv-x="1044" d="M59 543q0 567 486 567q83 0 148 -15.5t111 -41.5t79 -67.5t52.5 -86t31 -105.5t15 -117.5t3.5 -129.5q0 -127 -25 -226t-68 -163.5t-105 -106t-132.5 -59t-154.5 -17.5q-83 0 -148.5 16t-111.5 42t-79 68t-52.5 87t-31 106.5t-15 118t-3.5 130.5zM274 1325l482 197 l78 -234l-502 -131zM414 553q0 -195 18 -289q32 -12 57 -12q26 0 43 3.5t37.5 19t32.5 44t20.5 83.5t8.5 133q0 193 -21 288q-26 13 -55 13q-27 0 -44 -3.5t-37.5 -19t-32 -44.5t-19.5 -83.5t-8 -132.5z" />
<glyph unicode="&#xf4;" horiz-adv-x="1044" d="M59 543q0 567 486 567q83 0 148 -15.5t111 -41.5t79 -67.5t52.5 -86t31 -105.5t15 -117.5t3.5 -129.5q0 -127 -25 -226t-68 -163.5t-105 -106t-132.5 -59t-154.5 -17.5q-83 0 -148.5 16t-111.5 42t-79 68t-52.5 87t-31 106.5t-15 118t-3.5 130.5zM199 1294l342 205 l344 -205l-58 -137l-286 111l-285 -111zM414 553q0 -195 18 -289q32 -12 57 -12q26 0 43 3.5t37.5 19t32.5 44t20.5 83.5t8.5 133q0 193 -21 288q-26 13 -55 13q-27 0 -44 -3.5t-37.5 -19t-32 -44.5t-19.5 -83.5t-8 -132.5z" />
<glyph unicode="&#xf5;" horiz-adv-x="1044" d="M59 543q0 567 486 567q83 0 148 -15.5t111 -41.5t79 -67.5t52.5 -86t31 -105.5t15 -117.5t3.5 -129.5q0 -127 -25 -226t-68 -163.5t-105 -106t-132.5 -59t-154.5 -17.5q-83 0 -148.5 16t-111.5 42t-79 68t-52.5 87t-31 106.5t-15 118t-3.5 130.5zM190 1399q33 32 94 62 t95 30q42 0 87.5 -18t79 -39.5t77.5 -39.5t84 -18l137 62l47 -174q-33 -33 -93.5 -64t-95.5 -31q-42 0 -88 18t-79.5 39.5t-77.5 39.5t-84 18q-67 -26 -135 -57zM414 553q0 -195 18 -289q32 -12 57 -12q26 0 43 3.5t37.5 19t32.5 44t20.5 83.5t8.5 133q0 193 -21 288 q-26 13 -55 13q-27 0 -44 -3.5t-37.5 -19t-32 -44.5t-19.5 -83.5t-8 -132.5z" />
<glyph unicode="&#xf6;" horiz-adv-x="1044" d="M59 543q0 567 486 567q83 0 148 -15.5t111 -41.5t79 -67.5t52.5 -86t31 -105.5t15 -117.5t3.5 -129.5q0 -127 -25 -226t-68 -163.5t-105 -106t-132.5 -59t-154.5 -17.5q-83 0 -148.5 16t-111.5 42t-79 68t-52.5 87t-31 106.5t-15 118t-3.5 130.5zM184 1198v223l312 19 v-226zM414 553q0 -195 18 -289q32 -12 57 -12q26 0 43 3.5t37.5 19t32.5 44t20.5 83.5t8.5 133q0 193 -21 288q-26 13 -55 13q-27 0 -44 -3.5t-37.5 -19t-32 -44.5t-19.5 -83.5t-8 -132.5zM588 1198v223l311 19v-226z" />
<glyph unicode="&#xf7;" horiz-adv-x="901" d="M66 506v272h770v-272h-770zM315 156v237h269v-237h-269zM315 885v237h269v-237h-269z" />
<glyph unicode="&#xf8;" horiz-adv-x="1044" d="M59 543q0 567 486 567q79 0 160 -18l63 125h201l-107 -209q73 -69 98 -182.5t25 -278.5q0 -127 -25 -226t-68 -163.5t-105 -106t-132.5 -59t-154.5 -17.5q-79 0 -152 17l-59 -123h-211l104 209q-73 72 -98 185.5t-25 279.5zM385 553q0 -102 2 -147l4 -3q11 39 49 117 l162 332q-28 4 -41 4q-36 0 -58 -4t-47.5 -20.5t-39 -48t-22.5 -89t-9 -141.5zM442 238q35 -5 41 -5q36 0 57.5 3.5t47 20t39 48t23 89t9.5 141.5q0 26 -1 75.5t-1 71.5l-4 2q-14 -50 -49 -119z" />
<glyph unicode="&#xf9;" d="M82 244v835l352 21v-682q0 -72 15 -113q8 -2 36 -2q81 0 154 45v731l352 21v-1100h-329v127h-5q-45 -49 -138.5 -97t-203.5 -48q-112 0 -172.5 66.5t-60.5 195.5zM281 1288l77 234l480 -197l-56 -168z" />
<glyph unicode="&#xfa;" d="M82 244v835l352 21v-682q0 -72 15 -113q8 -2 36 -2q81 0 154 45v731l352 21v-1100h-329v127h-5q-45 -49 -138.5 -97t-203.5 -48q-112 0 -172.5 66.5t-60.5 195.5zM279 1325l481 197l78 -234l-502 -131z" />
<glyph unicode="&#xfb;" d="M82 244v835l352 21v-682q0 -72 15 -113q8 -2 36 -2q81 0 154 45v731l352 21v-1100h-329v127h-5q-45 -49 -138.5 -97t-203.5 -48q-112 0 -172.5 66.5t-60.5 195.5zM203 1294l342 205l344 -205l-58 -137l-286 111l-285 -111z" />
<glyph unicode="&#xfc;" d="M82 244v835l352 21v-682q0 -72 15 -113q8 -2 36 -2q81 0 154 45v731l352 21v-1100h-329v127h-5q-45 -49 -138.5 -97t-203.5 -48q-112 0 -172.5 66.5t-60.5 195.5zM188 1198v223l312 19v-226zM592 1198v223l311 19v-226z" />
<glyph unicode="&#xfd;" horiz-adv-x="1042" d="M10 1085h377l102 -563q17 -96 27 -190h6q6 63 27 190l96 563h385l-242 -1087q-16 -72 -41.5 -126.5t-69 -101.5t-112 -71.5t-159.5 -24.5q-79 0 -148.5 9t-98.5 17t-44 15v299q125 -32 229 -32q58 0 87 18.5t38 67.5l8 53h-233zM250 1325l481 197l78 -234l-502 -131z" />
<glyph unicode="&#xfe;" horiz-adv-x="1060" d="M88 -328v1723l352 39v-453h4q40 50 111 89.5t154 39.5q74 0 126.5 -26t83.5 -69t49 -115.5t23.5 -147t5.5 -181.5q0 -162 -31 -275.5t-93 -180.5t-145.5 -97t-197.5 -30q-63 0 -90 2v-279zM440 270q30 -6 72 -6q25 0 43.5 5t38.5 22t32.5 46.5t20.5 81.5t8 124 q0 163 -24 254q-8 4 -39 4q-68 0 -152 -39v-492z" />
<glyph unicode="&#xff;" horiz-adv-x="1042" d="M10 1085h377l102 -563q17 -96 27 -190h6q6 63 27 190l96 563h385l-242 -1087q-16 -72 -41.5 -126.5t-69 -101.5t-112 -71.5t-159.5 -24.5q-79 0 -148.5 9t-98.5 17t-44 15v299q125 -32 229 -32q58 0 87 18.5t38 67.5l8 53h-233zM160 1198v223l311 19v-226zM563 1198v223 l311 19v-226z" />
<glyph unicode="&#x152;" horiz-adv-x="1406" d="M66 653q0 131 12 232t45 195.5t88 155.5t145.5 97.5t212.5 36.5q95 0 160 -18h604l-12 -314h-334v-209h322v-294h-322v-218h342v-317h-663q-68 -18 -160 -18q-73 0 -131.5 10.5t-103 34t-77.5 53.5t-55.5 76t-37 94.5t-22 116t-10.5 133t-3 153.5zM420 655 q0 -255 26 -362q36 -4 66 -4q82 0 121 20v750q-27 6 -58 6q-35 0 -60.5 -9t-42.5 -32.5t-27.5 -52.5t-16 -80t-7 -103t-1.5 -133z" />
<glyph unicode="&#x153;" horiz-adv-x="1531" d="M59 543q0 567 486 567q190 0 270 -109q103 109 285 109q91 0 158.5 -21.5t109 -58.5t66.5 -94.5t34 -121t9 -146.5q0 -105 -21 -252l-475 -27q3 -72 14 -121q40 -4 84 -4q148 0 340 47l21 -276q-42 -22 -146 -41t-237 -19q-189 0 -277 119q-102 -119 -299 -119 q-81 0 -145 15.5t-108 41.5t-75.5 68.5t-49.5 86.5t-28 107t-13 118t-3 131zM414 553q0 -195 18 -289q32 -12 57 -12q26 0 43 3.5t37.5 19t32.5 44t20.5 83.5t8.5 133q0 193 -21 288q-26 13 -55 13q-27 0 -44 -3.5t-37.5 -19t-32 -44.5t-19.5 -83.5t-8 -132.5zM981 586 l176 12q2 33 2 74q0 114 -16 166q-24 8 -45 8q-28 0 -44 -3.5t-32 -17.5t-24 -42t-12.5 -76t-4.5 -121z" />
<glyph unicode="&#x178;" horiz-adv-x="1015" d="M6 1352h367l102 -430q27 -116 33 -193h6q5 63 37 195l113 428h364l-348 -910v-442h-354v442zM190 1425v201l281 16v-202zM555 1425v201l281 16v-202z" />
<glyph unicode="&#x2c6;" horiz-adv-x="796" d="M55 1294l342 205l344 -205l-57 -137l-287 111l-284 -111z" />
<glyph unicode="&#x2dc;" horiz-adv-x="796" d="M47 1399q33 32 94 62t95 30q42 0 87 -18t78.5 -39.5t77.5 -39.5t84 -18l137 62l48 -174q-33 -33 -93.5 -64t-95.5 -31q-42 0 -88 18t-80 39.5t-78 39.5t-84 18q-67 -26 -135 -57z" />
<glyph unicode="&#x2000;" horiz-adv-x="864" />
<glyph unicode="&#x2001;" horiz-adv-x="1729" />
<glyph unicode="&#x2002;" horiz-adv-x="864" />
<glyph unicode="&#x2003;" horiz-adv-x="1729" />
<glyph unicode="&#x2004;" horiz-adv-x="576" />
<glyph unicode="&#x2005;" horiz-adv-x="432" />
<glyph unicode="&#x2006;" horiz-adv-x="288" />
<glyph unicode="&#x2007;" horiz-adv-x="288" />
<glyph unicode="&#x2008;" horiz-adv-x="216" />
<glyph unicode="&#x2009;" horiz-adv-x="345" />
<glyph unicode="&#x200a;" horiz-adv-x="96" />
<glyph unicode="&#x2010;" horiz-adv-x="757" d="M88 473v287h582v-287h-582z" />
<glyph unicode="&#x2011;" horiz-adv-x="757" d="M88 473v287h582v-287h-582z" />
<glyph unicode="&#x2012;" horiz-adv-x="757" d="M88 473v287h582v-287h-582z" />
<glyph unicode="&#x2013;" horiz-adv-x="997" d="M86 473v287h823v-287h-823z" />
<glyph unicode="&#x2014;" horiz-adv-x="1214" d="M86 473v287h1042v-287h-1042z" />
<glyph unicode="&#x2018;" horiz-adv-x="421" d="M70 864v244l80 250h190v-494h-270z" />
<glyph unicode="&#x2019;" horiz-adv-x="415" d="M82 858v494h270v-244l-80 -250h-190z" />
<glyph unicode="&#x201a;" horiz-adv-x="428" d="M80 -186v493h270v-244l-80 -249h-190z" />
<glyph unicode="&#x201c;" horiz-adv-x="792" d="M70 864v244l80 250h190v-494h-270zM440 864v244l80 250h191v-494h-271z" />
<glyph unicode="&#x201d;" horiz-adv-x="784" d="M82 858v494h270v-244l-80 -250h-190zM451 858v494h270v-244l-80 -250h-190z" />
<glyph unicode="&#x201e;" horiz-adv-x="796" d="M80 -186v493h270v-244l-80 -249h-190zM449 -186v493h270v-244l-80 -249h-190z" />
<glyph unicode="&#x2022;" horiz-adv-x="694" d="M131 436v488h432v-488h-432z" />
<glyph unicode="&#x2026;" horiz-adv-x="1558" d="M80 0v338h301v-338h-301zM627 0v338h301v-338h-301zM1176 0v338h301v-338h-301z" />
<glyph unicode="&#x202f;" horiz-adv-x="345" />
<glyph unicode="&#x2039;" horiz-adv-x="602" d="M43 561l203 473h309l-201 -473l199 -473h-307z" />
<glyph unicode="&#x203a;" horiz-adv-x="602" d="M47 88l201 473l-199 473h307l203 -473l-203 -473h-309z" />
<glyph unicode="&#x205f;" horiz-adv-x="432" />
<glyph unicode="&#x20ac;" horiz-adv-x="970" d="M53 444v179h123v102h-123v178h135q11 89 31 158.5t56 130t86.5 100t124.5 62t169 22.5q130 0 256 -41l-20 -311q-112 31 -189 31q-81 0 -116 -30t-47 -122h282v-178h-293v-102h293v-179h-289q5 -85 19 -141q18 -2 61 -2q152 0 281 37l2 -313q-41 -18 -135 -34t-164 -16 q-100 0 -172 20t-118 55.5t-73.5 96t-39 129.5t-15.5 168h-125z" />
<glyph unicode="&#x2122;" horiz-adv-x="1570" d="M88 1149v203h516v-203h-143v-608h-223v608h-150zM627 541l57 811h289l71 -355q17 -80 17 -116h8q0 34 14 116l68 355h295l53 -811h-215l-16 336q-3 84 0 118h-8q-3 -26 -25 -114l-84 -340h-182l-80 340q-19 79 -23 116h-8q3 -34 0 -118l-16 -338h-215z" />
<glyph unicode="&#x25fc;" horiz-adv-x="1105" d="M0 0v1106h1106v-1106h-1106z" />
<glyph unicode="&#xfb01;" horiz-adv-x="1193" d="M49 678v264l96 25v141q0 166 74 245t242 79q127 0 237 -27l-22 -283q-43 13 -105 13q-41 0 -73 -7v-8q-1 -7 -2 -19t-2 -27.5t-1.5 -35.5t-0.5 -39v-12l614 35v-1022h-354v717l-252 -15v-702h-355v682zM805 1124v283l305 20v-282z" />
<glyph unicode="&#xfb02;" horiz-adv-x="1257" d="M49 678v264l96 25v141q0 166 74 245t242 79q146 0 256 -27l-21 -283q-50 13 -118 13q-48 0 -80 -7q-6 -42 -6 -129v-18l202 8v-287l-194 -8v-694h-355v682zM815 0v1395l354 39v-1434h-354z" />
</font>
</defs>
</svg>
